<svg xmlns="http://www.w3.org/2000/svg" width="338.442" height="486.218" viewBox="0 0 338.442 486.218">
  <g id="Group_46" data-name="Group 46" transform="translate(-322.905 1147.477) rotate(-79)" opacity="0.5">
    <path id="Path_18" data-name="Path 18" d="M-3748.692-1194.652c1.427-24.193,5.436-49.291,19.5-69.03,13.344-18.731,35.218-30.9,58.1-33.248s46.433,4.933,64.566,19.079c8.713,6.8,17.571,15.614,28.611,15.14,8.623-.37,15.843-6.472,21.8-12.715a164.015,164.015,0,0,0,36.272-59.528c2.439-7.068,4.93-15,11.445-18.667,5.3-2.987,11.9-2.256,17.783-.69a72.462,72.462,0,0,1,24.968,12.174c8.523,6.44,18.231,15.364,28.243,11.639,5.372-2,8.791-7.2,11.574-12.207a171.1,171.1,0,0,0,15.411-37.776c.583-2.125,1.183-4.367,2.73-5.936,1.815-1.839,4.576-2.374,7.159-2.389,8.639-.052,16.5,4.555,24.486,7.842s17.771,5.122,24.788.083c3.358-2.412,5.569-6.073,7.583-9.685a220.369,220.369,0,0,0,23.619-64.211" transform="translate(4508.875 1636.652)" fill="none" stroke="#3d3d3d" stroke-linecap="round" stroke-linejoin="round" stroke-width="1"/>
    <path id="Path_19" data-name="Path 19" d="M1163.485-346.811l25.875-15.143,14.052,40.316" transform="translate(0 543)" fill="none" stroke="#3d3d3d" stroke-linecap="round" stroke-linejoin="round" stroke-width="1"/>
  </g>
</svg>
