<svg xmlns="http://www.w3.org/2000/svg" width="1274.796" height="593.762" viewBox="0 0 1274.796 593.762">
  <path id="Path_63" data-name="Path 63" d="M1024.214-3279.151c43.117-10.935,94.407-20.048,127.44,9.743,18.838,16.989,26.64,42.9,31.353,67.829,17.237,91.15,4.288,186.427,25.611,276.709a373.133,373.133,0,0,0,50.111,117.211c17.887,27.536,40.009,53.167,68.513,69.466,33.326,19.055,72.99,24.009,111.366,23.058,87.829-2.175,176.666-32.927,261.885-11.567,31.607,7.922,62.01,22.936,94.593,23.215,56.048.481,105.311-42.516,161.358-43.1,40.146-.417,76.781,20.895,114.713,34.049,73.488,25.483,157.245,19.746,226.571-15.52" transform="translate(-1023.606 3290.053)" fill="none" stroke="#3d3d3d" stroke-linecap="round" stroke-width="1" opacity="0.5"/>
</svg>
